<?xml version="1.0" encoding="utf-8"?>
<!-- Generator: Adobe Illustrator 21.1.0, SVG Export Plug-In . SVG Version: 6.00 Build 0)  -->
<svg version="1.1" id="Layer_1" xmlns="http://www.w3.org/2000/svg" xmlns:xlink="http://www.w3.org/1999/xlink" x="0px" y="0px"
	 viewBox="0 0 1280 1024" style="enable-background:new 0 0 1280 1024;" xml:space="preserve">
<style type="text/css">
	.st0{fill:none;}
	.st1{fill:#FB4A37;}
	.st2{font-family:'Raleway-Regular';}
	.st3{font-size:132.7633px;}
	.st4{font-size:153.8848px;}
	.st5{letter-spacing:1.4;}
</style>
<g>
	<rect x="441" y="414.1" class="st0" width="425" height="139.9"/>
	<text transform="matrix(0.7034 0 0 1 440.957 526.3989)" class="st1 st2 st3">BO</text>
	<text transform="matrix(0.6963 0 0 1.07 573.2769 535.4507)" class="st1 st2 st4 st5">X</text>
	<text transform="matrix(0.7034 0 0 1 642.0703 526.3989)" class="st1 st2 st3">RICO </text>
	<polygon class="st1" points="861.3,415.9 659.2,415.9 660.6,409.9 862.7,409.9 	"/>
	<polygon class="st1" points="861.4,546.6 659.1,546.6 660.4,540.6 862.8,540.6 	"/>
	
		<rect x="792.4" y="476.1" transform="matrix(3.895922e-10 1 -1 3.895922e-10 1338.957 -382.4202)" class="st1" width="136.7" height="4.2"/>
	
		<rect x="349.2" y="476.1" transform="matrix(-1.836970e-16 1 -1 -1.836970e-16 895.3153 61.0706)" class="st1" width="135.8" height="4.2"/>
	<polygon class="st1" points="416.9,540 540.9,540 542.3,546.1 418.4,546.1 	"/>
	<polygon class="st1" points="416.9,410.3 538.8,410.3 540.2,416.4 418.4,416.4 	"/>
</g>
</svg>
